# xmcd CD database file
#
# Track frame offsets:
#	150
#	25205
#	46565
#
# Disc length: 953 seconds
#
# Revision: 0
# Processed by: cddbd v1.5PL3 Copyright (c) Steve Scherf et al.
# Submitted via: CDex 1.40Release
#
DISCID=1603b703
DTITLE=桑野信義 - エイトマンのテーマ
DYEAR=1993
DGENRE=Anime
TTITLE0=エイトマンのテーマ (version 1993)
TTITLE1=微笑みの向こう側
TTITLE2=エイトマンのテーマ (version 1993 -instrumental-)
EXTD=YEAR: 1993
EXTT0=
EXTT1=
EXTT2=
PLAYORDER=
